# xmcd CD database file
#
# Track frame offsets:
#	150
#	19485
#	33312
#	50965
#	79992
#	105445
#	127357
#	140647
#	156677
#
# Disc length: 2368 seconds
#
# Revision: 0
# Processed by: cddbd v1.4PL0 Copyright (c) Steve Scherf et al.
# Submitted via: CDex 1.50beta9
#
DISCID=8b093e09
DTITLE=Bobby Carcasses - Forbidden Cuba in the 80's
DYEAR=1900
DGENRE=Jazz
TTITLE0=El Blues Son
TTITLE1=La Noche
TTITLE2=Te Has Ido
TTITLE3=Blues Para Chano
TTITLE4=Sin Tema
TTITLE5=Blues Guaguanco
TTITLE6=Cansado
TTITLE7=Mi Son Para Panama
TTITLE8=Emiliano Primero
EXTD=
EXTT0=
EXTT1=
EXTT2=
EXTT3=
EXTT4=
EXTT5=
EXTT6=
EXTT7=
EXTT8=
PLAYORDER=
